<?xml version="1.0" encoding="UTF-8" standalone="no"?>
<!-- Created with Inkscape (http://www.inkscape.org/) -->

<svg
   viewBox="0 0 97.337616 97.289154"
   version="1.1"
   id="svg5"
   inkscape:version="1.1 (1:1.1+202105261517+ce6663b3b7)"
   sodipodi:docname="eskom.svg"
   xmlns:inkscape="http://www.inkscape.org/namespaces/inkscape"
   xmlns:sodipodi="http://sodipodi.sourceforge.net/DTD/sodipodi-0.dtd"
   xmlns="http://www.w3.org/2000/svg"
   xmlns:svg="http://www.w3.org/2000/svg">
  <sodipodi:namedview
     id="namedview7"
     pagecolor="#ffffff"
     bordercolor="#666666"
     borderopacity="1.0"
     inkscape:pageshadow="2"
     inkscape:pageopacity="0.0"
     inkscape:pagecheckerboard="0"
     inkscape:document-units="mm"
     showgrid="false"
     fit-margin-top="0"
     fit-margin-left="0"
     fit-margin-right="0"
     fit-margin-bottom="0"
     inkscape:zoom="0.68684764"
     inkscape:cx="-208.19756"
     inkscape:cy="150.68844"
     inkscape:window-width="1848"
     inkscape:window-height="1016"
     inkscape:window-x="72"
     inkscape:window-y="27"
     inkscape:window-maximized="1"
     inkscape:current-layer="layer1" />
  <defs
     id="defs2" />
  <g
     inkscape:label="Layer 1"
     inkscape:groupmode="layer"
     id="layer1"
     transform="translate(-51.061678,-108.62612)">
    <path
       style="fill:#00529e;stroke-width:1"
       d="m 95.240309,205.81141 c -0.436563,-0.0618 -1.74625,-0.24089 -2.910417,-0.39808 -5.055385,-0.68257 -11.449875,-2.84015 -16.139583,-5.4457 -13.171762,-7.31808 -21.91087,-19.63427 -24.654672,-34.7463 -0.572886,-3.15529 -0.642906,-12.05288 -0.119723,-15.21354 2.142718,-12.94462 9.067419,-24.38404 19.298375,-31.88041 2.456273,-1.79975 6.942897,-4.49981 7.477215,-4.49981 0.118755,0 2.515036,3.40006 5.32507,7.55569 2.810034,4.15562 6.597433,9.74157 8.416443,12.41321 6.211284,9.12272 8.069793,11.91338 8.155773,12.24639 0.0685,0.26522 -2.866551,0.31907 -14.419788,0.26458 l -14.505776,-0.0684 0.08612,-0.79113 c 0.254241,-2.3356 2.265963,-4.9141 4.676381,-5.99389 1.148421,-0.51446 1.862791,-0.60406 5.415925,-0.67932 2.251157,-0.0477 4.180176,-0.17385 4.286711,-0.28038 0.106534,-0.10654 -1.916703,-3.28912 -4.496083,-7.07241 -3.80197,-5.57652 -4.813827,-6.89309 -5.345041,-6.95467 -0.491223,-0.057 -1.214771,0.40671 -2.890248,1.85208 -15.100363,13.02658 -18.684406,35.02772 -8.49313,52.13623 7.030778,11.80286 20.253624,19.71346 33.210931,19.8685 2.806378,0.0336 3.178628,-0.0142 3.259278,-0.41851 0.081,-0.40617 -4.924336,-8.00152 -19.663566,-29.83837 -2.210001,-3.27422 -4.213871,-6.33416 -4.453043,-6.79988 -1.098828,-2.13964 -0.199845,-5.33059 1.923121,-6.82616 l 1.126731,-0.79375 16.447748,-0.13229 c 16.226939,-0.13052 16.448769,-0.13944 16.524029,-0.6645 0.0484,-0.3379 -2.41759,-4.24999 -6.75469,-10.71563 -3.75703,-5.60088 -9.974113,-14.86622 -13.815741,-20.58963 -5.503201,-8.19889 -6.904599,-10.45614 -6.606773,-10.64161 0.207904,-0.12947 1.390039,-0.47161 2.626966,-0.76032 7.102025,-1.65764 14.514388,-1.75215 21.646538,-0.276 14.85536,3.07464 28.13143,13.80227 34.30058,27.71633 7.46687,16.84093 4.90463,36.27815 -6.67163,50.61135 -2.03992,2.52573 -6.14472,6.46175 -8.74192,8.38247 -2.42504,1.7934 -6.61963,4.30008 -7.18248,4.29223 -0.23504,-0.003 -1.95623,-2.29312 -4.02728,-5.35781 -1.98925,-2.94365 -6.9601,-10.25954 -11.04635,-16.25755 -4.08625,-5.99799 -7.429542,-10.96885 -7.429542,-11.04635 0,-0.0775 6.563652,-0.1409 14.585902,-0.1409 h 14.58591 l -0.17312,1.08262 c -0.38738,2.42253 -2.14667,4.60652 -4.63415,5.75285 -1.34379,0.61928 -1.85671,0.69114 -5.64527,0.79092 -2.29196,0.0604 -4.16719,0.21704 -4.16719,0.34816 0,0.13113 2.14806,3.36136 4.77348,7.17829 3.20722,4.66279 4.94851,6.96827 5.30693,7.02642 0.75406,0.12234 3.03024,-1.71097 5.8361,-4.7006 5.20959,-5.55077 8.62663,-12.04708 10.32376,-19.62694 0.5393,-2.40868 0.61494,-3.44622 0.61494,-8.43505 0,-6.28629 -0.37086,-8.74213 -2.03296,-13.46214 -5.08996,-14.45451 -18.03202,-25.06541 -33.11643,-27.15143 -1.68143,-0.23253 -3.80709,-0.38718 -4.72368,-0.34367 -1.583053,0.0751 -1.666045,0.11223 -1.657161,0.74056 0.0058,0.41113 1.966761,3.56523 5.181591,8.33437 17.50832,25.97328 18.70655,27.81437 18.88746,29.02074 0.35893,2.39358 -0.78805,4.66694 -2.90424,5.7563 l -1.31541,0.67714 -16.21323,0.0776 c -15.434023,0.0738 -16.213232,0.10055 -16.213232,0.5559 0,0.26309 3.486788,5.64553 7.748418,11.96098 4.261628,6.31545 10.571954,15.67255 14.022944,20.79356 3.451,5.12101 6.15966,9.38193 6.01925,9.4687 -0.55624,0.34378 -2.93052,0.96188 -5.6979,1.48334 -2.79386,0.52645 -11.120576,0.91396 -13.22917,0.61566 z"
       id="path1017" />
    <path
       style="fill:#000000;stroke-width:1"
       id="path836"
       d="" />
  </g>
</svg>
